<svg xmlns="http://www.w3.org/2000/svg" viewBox="0 0 64 64" width="64px" height="64px"><path fill="#c4939c" d="M58,49l-0.82,8.199C57.078,58.221,56.218,59,55.19,59H8.81c-1.028,0-1.888-0.779-1.99-1.801L6,49H58 z"/><path fill="#cda1a7" d="M60.89,47.24c0.06,1.05-0.69,1.96-1.72,2.1L48.4,50.83c-10.88,1.5-21.92,1.5-32.8,0L4.83,49.34 c-1.03-0.14-1.78-1.05-1.72-2.1L3.89,34l0.89-15.18c0.12-2.11,1.87-3.77,3.99-3.77h46.46c2.12,0,3.87,1.66,3.99,3.77L60.11,34 L60.89,47.24z"/><path fill="#dbb2ba" d="M60.11,34H3.89l0.89-15.18c0.12-2.11,1.87-3.77,3.99-3.77h46.46c2.12,0,3.87,1.66,3.99,3.77 L60.11,34z"/><path fill="#ed7899" d="M32 21A13 13 0 1 0 32 47A13 13 0 1 0 32 21Z"/><path fill="#faefde" d="M38,31h-3v-3c0-0.552-0.448-1-1-1h-4c-0.552,0-1,0.448-1,1v3h-3c-0.552,0-1,0.448-1,1v4 c0,0.552,0.448,1,1,1h3v3c0,0.552,0.448,1,1,1h4c0.552,0,1-0.448,1-1v-3h3c0.552,0,1-0.448,1-1v-4C39,31.448,38.552,31,38,31z"/><path fill="#f9dd8f" d="M15 53L15 53c-1.105 0-2-.895-2-2v-4h4v4C17 52.105 16.105 53 15 53zM49 53L49 53c-1.105 0-2-.895-2-2v-4h4v4C51 52.105 50.105 53 49 53z"/><path fill="#8d6c9f" d="M60.22,18.76c-0.145-2.389-1.956-4.294-4.255-4.638C55.975,14,56,13.879,56,13.758 C56,8.286,45.458,4,32,4S8,8.286,8,13.758C8,13.88,8.025,14,8.035,14.122c-2.298,0.344-4.11,2.25-4.255,4.638L2.11,47.19 c-0.09,1.55,1.04,2.93,2.59,3.14l0.434,0.06l0.691,6.908C5.979,58.839,7.261,60,8.81,60H55.19c1.549,0,2.831-1.161,2.984-2.701 l0.691-6.909l0.434-0.06c1.55-0.21,2.68-1.59,2.59-3.14L60.22,18.76z M32,6c12.965,0,22,4.089,22,7.758 c0,0.098-0.016,0.195-0.028,0.292H10.029C10.017,13.953,10,13.855,10,13.758C10,10.089,19.035,6,32,6z M56.185,57.101 C56.134,57.613,55.706,58,55.19,58H8.81c-0.516,0-0.943-0.387-0.994-0.9l-0.643-6.429l4.858,0.669C12.19,52.83,13.47,54,15,54 c1.25,0,2.33-0.78,2.78-1.88c4.72,0.56,9.47,0.83,14.22,0.83s9.5-0.27,14.22-0.83C46.67,53.22,47.75,54,49,54 c1.53,0,2.81-1.17,2.97-2.66l4.858-0.669L56.185,57.101z M16,49.87V51c0,0.34-0.18,0.65-0.44,0.83C15.4,51.94,15.21,52,15,52 c-0.3,0-0.57-0.14-0.76-0.35C14.09,51.47,14,51.25,14,51v-1.4V48h2V49.87z M50,49.6V51c0,0.25-0.09,0.47-0.24,0.65 C49.57,51.86,49.3,52,49,52c-0.21,0-0.4-0.06-0.56-0.17C48.18,51.65,48,51.34,48,51v-1.13V48h2V49.6z M59.03,48.35L52,49.32V47 c0-0.55-0.45-1-1-1h-4c-0.55,0-1,0.45-1,1v3.13c-9.3,1.1-18.7,1.1-28,0V47c0-0.55-0.45-1-1-1h-4c-0.55,0-1,0.45-1,1v2.32 l-7.03-0.97c-0.51-0.07-0.89-0.53-0.86-1.05l0.667-11.345C4.851,35.972,4.921,36,5,36c0.553,0,1-0.447,1-1v-2 c0-0.55-0.443-0.993-0.991-0.998L5.78,18.88c0.09-1.58,1.41-2.83,2.99-2.83h0.434c0.015,0.001,0.029,0,0.044,0h45.471 c0.01,0,0.02,0.006,0.03,0.006c0.013,0,0.025-0.005,0.038-0.006h0.443c1.58,0,2.9,1.25,2.99,2.83l0.771,13.122 C58.443,32.007,58,32.45,58,33v2c0,0.553,0.447,1,1,1c0.079,0,0.149-0.028,0.223-0.045L59.89,47.3 C59.92,47.82,59.54,48.28,59.03,48.35z"/><path fill="#8d6c9f" d="M32,20c-7.72,0-14,6.28-14,14s6.28,14,14,14s14-6.28,14-14S39.72,20,32,20z M32,46 c-6.617,0-12-5.383-12-12s5.383-12,12-12s12,5.383,12,12S38.617,46,32,46z"/><path fill="#8d6c9f" d="M38 30h-2v-2c0-1.103-.897-2-2-2h-4c-1.103 0-2 .897-2 2v2h-2c-1.103 0-2 .897-2 2v4c0 1.103.897 2 2 2h2v2c0 1.103.897 2 2 2h4c1.103 0 2-.897 2-2v-2h2c1.103 0 2-.897 2-2v-4C40 30.897 39.103 30 38 30zM38 36h-3c-.553 0-1 .447-1 1v3h-4v-3c0-.553-.447-1-1-1h-3v-4h3c.553 0 1-.447 1-1v-3h4v3c0 .553.447 1 1 1h3V36zM54 32c-.553 0-1 .447-1 1v2c0 .553.447 1 1 1s1-.447 1-1v-2C55 32.447 54.553 32 54 32zM49 32c-.553 0-1 .447-1 1v2c0 .553.447 1 1 1s1-.447 1-1v-2C50 32.447 49.553 32 49 32zM15 32c-.553 0-1 .447-1 1v2c0 .553.447 1 1 1s1-.447 1-1v-2C16 32.447 15.553 32 15 32zM10 32c-.553 0-1 .447-1 1v2c0 .553.447 1 1 1s1-.447 1-1v-2C11 32.447 10.553 32 10 32z"/></svg>