<svg xmlns="http://www.w3.org/2000/svg" viewBox="0 0 64 64" width="64px" height="64px"><path fill="#cda1a7" d="M55,61H9c-1.105,0-2-0.895-2-2V7c0-1.105,0.895-2,2-2h46c1.105,0,2,0.895,2,2v52 C57,60.105,56.105,61,55,61z"/><path fill="#deb4ba" d="M56,7L56,7c0,0.552-0.448,1-1,1H9C8.448,8,8,7.552,8,7v0c0-0.552,0.448-1,1-1h46 C55.552,6,56,6.448,56,7z"/><path fill="#faefde" d="M13 55L43 55 51 55 51 11 13 11z"/><path fill="#fff7f0" d="M51 35.474L51 14.632 17.573 54.882 33.882 54.882zM13.396 53.396L48.5 11 44 11 12.5 49.605zM13 43.421L39.5 11 38 11 13 41.527z"/><path fill="#f9e3ae" d="M42 6L32 1 22 6 21 13 43 13z"/><path fill="#8d6c9f" d="M32 4A2 2 0 1 0 32 8A2 2 0 1 0 32 4Z"/><path fill="#ed7899" d="M19,29.667h3.5c0.645,0,1.167-0.522,1.167-1.167V25h4.667v3.5c0,0.645,0.522,1.167,1.167,1.167H33 v4.667h-3.5c-0.645,0-1.167,0.522-1.167,1.167V39h-4.667v-3.5c0-0.645-0.522-1.167-1.167-1.167H19V29.667z"/><path fill="#8d6c9f" d="M55,4H40.58l-2.7-1.96C36.12,0.76,34.06,0.12,32,0.12s-4.12,0.64-5.88,1.92L23.42,4H9 C7.35,4,6,5.35,6,7v52c0,1.65,1.35,3,3,3h46c1.65,0,3-1.35,3-3V7C58,5.35,56.65,4,55,4z M27.29,3.66c2.82-2.05,6.6-2.05,9.42,0 L37.18,4l2.74,2l0.84,0.61C41.54,7.17,42,8.08,42,9.04V10v1c0,0.55-0.45,1-1,1H23c-0.55,0-1-0.45-1-1v-1V9.04 c0-0.96,0.46-1.87,1.24-2.43L24.08,6l2.74-2L27.29,3.66z M20.18,12c0.41,1.16,1.52,2,2.82,2h18c1.3,0,2.41-0.84,2.82-2H50v42H14V12 H20.18z M56,59c0,0.55-0.45,1-1,1H9c-0.55,0-1-0.45-1-1V7c0-0.55,0.45-1,1-1h12.03C20.37,6.86,20,7.93,20,9.04V10h-6 c-1.1,0-2,0.9-2,2v42c0,1.1,0.9,2,2,2h36c1.1,0,2-0.9,2-2V12c0-1.12-0.88-2-2-2h-6V9.04c0-1.11-0.37-2.18-1.03-3.04H55 c0.55,0,1,0.45,1,1V59z"/><path fill="#8d6c9f" d="M17 20c.553 0 1-.447 1-1v-2c0-.553-.447-1-1-1s-1 .447-1 1v2C16 19.553 16.447 20 17 20zM22 20c.553 0 1-.447 1-1v-2c0-.553-.447-1-1-1s-1 .447-1 1v2C21 19.553 21.447 20 22 20zM27 20c.553 0 1-.447 1-1v-2c0-.553-.447-1-1-1s-1 .447-1 1v2C26 19.553 26.447 20 27 20zM32 20c.553 0 1-.447 1-1v-2c0-.553-.447-1-1-1s-1 .447-1 1v2C31 19.553 31.447 20 32 20zM37 20c.553 0 1-.447 1-1v-2c0-.553-.447-1-1-1s-1 .447-1 1v2C36 19.553 36.447 20 37 20zM42 20c.553 0 1-.447 1-1v-2c0-.553-.447-1-1-1s-1 .447-1 1v2C41 19.553 41.447 20 42 20zM47 20c.553 0 1-.447 1-1v-2c0-.553-.447-1-1-1s-1 .447-1 1v2C46 19.553 46.447 20 47 20zM32 4A2 2 0 1 0 32 8 2 2 0 1 0 32 4zM37 28h8c.553 0 1-.447 1-1s-.447-1-1-1h-8c-.553 0-1 .447-1 1S36.447 28 37 28zM45 32h-7c-.553 0-1 .447-1 1s.447 1 1 1h7c.553 0 1-.447 1-1S45.553 32 45 32zM45 44H21c-.553 0-1 .447-1 1s.447 1 1 1h24c.553 0 1-.447 1-1S45.553 44 45 44zM45 38H34c-.553 0-1 .447-1 1s.447 1 1 1h11c.553 0 1-.447 1-1S45.553 38 45 38zM18 34c0 1.103.897 2 2 2h2v2c0 1.103.897 2 2 2h4c1.103 0 2-.897 2-2v-2h2c1.103 0 2-.897 2-2v-4c0-1.103-.897-2-2-2h-2v-2c0-1.103-.897-2-2-2h-4c-1.103 0-2 .897-2 2v2h-2c-1.103 0-2 .897-2 2V34zM20 30h3c.553 0 1-.447 1-1v-3h4v3c0 .553.447 1 1 1h3v4h-3c-.553 0-1 .447-1 1v3h-4v-3c0-.553-.447-1-1-1h-3V30z"/></svg>