<svg xmlns="http://www.w3.org/2000/svg" viewBox="0 0 64 64" width="64px" height="64px"><path fill="#f9e3ae" d="M18.59,11.555c-0.874-2.106-1.537-2.186-2.861-2.24c-0.451-0.026-0.953-0.052-1.51-0.052 c-1.723,0-3.523,0.507-4.61,1.626C8.285,12.249,5,15.421,5,21.926c0,6.506,4.715,12.797,5.351,13.678 c0.663,0.879,9.193,14.423,22.438,19.943c10.358,4.319,13.431,3.919,15.788,3.413c3.444-0.746,7.762-3.307,8.848-6.399 c1.086-3.093,1.086-5.733,0.768-6.292c-0.318-0.56-1.192-0.879-2.516-1.546c-1.324-0.667-7.762-3.866-8.98-4.293 c-1.192-0.453-2.331-0.293-3.231,0.987c-1.272,1.786-2.516,3.6-3.523,4.692c-0.794,0.853-2.093,0.96-3.179,0.507 c-1.457-0.612-5.536-2.054-10.57-6.559c-3.895-3.492-6.543-7.837-7.311-9.144c-0.768-1.333-0.08-2.107,0.53-2.826 c0.663-0.827,1.298-1.413,1.96-2.187c0.663-0.773,1.033-1.173,1.457-2.08c0.451-0.879,0.132-1.786-0.185-2.453 C22.326,20.7,19.677,14.194,18.59,11.555z"/><path fill="#f6d397" d="M11.57,27.148c4.998,9.549,14.598,18.673,27.033,25.691c0.291,0.165,0.492,0.279,0.566,0.325 l0.129,0.078c2.617,1.572,7.071,3.878,11.894,4.766c0.9,0.166-0.354,1.387-2.392,1.565c-5.718,0.5-12.606-1.422-15.661-3.258 l-0.11-0.066c-0.063-0.04-0.235-0.137-0.484-0.278C21.899,49.962,13.681,42.152,9.402,33.977 c-5.8-11.078-4.512-15.209-4.234-17.433c0.118-0.934,1.074-1.552,1.342-0.735C7.392,18.498,8.933,22.111,11.57,27.148z"/><path fill="#faefde" d="M13.172 9.263l6.481 16.422 2.034-.803c.931-.368 1.389-1.421 1.021-2.352L17.682 9.795 13.172 9.263zM42.349 42.772l15.096 7.667.906-1.783c.5-.985.107-2.189-.878-2.689l-11.53-5.855c-.985-.5-2.189-.107-2.689.878L42.349 42.772z"/><path fill="#8d6c9f" d="M59.063,45.513c-0.406-0.716-1.155-1.078-2.192-1.58c-0.229-0.11-0.478-0.23-0.744-0.366 c-0.076-0.037-7.654-3.837-9.075-4.334c-1.76-0.67-3.324-0.19-4.4,1.342l-0.566,0.798c-1.062,1.498-2.064,2.914-2.874,3.793 c-0.521,0.559-1.41,0.538-2.061,0.267l-0.419-0.172c-1.746-0.711-5.378-2.188-9.87-6.209c-3.464-3.106-5.945-6.914-7.112-8.899 c-0.387-0.672-0.226-0.912,0.443-1.701c0.36-0.449,0.713-0.823,1.065-1.199c0.289-0.309,0.579-0.618,0.873-0.962l0.128-0.149 c0.594-0.689,1.022-1.188,1.46-2.125c0.737-1.437,0.052-2.869-0.172-3.339c-0.223-0.467-1.778-4.266-2.914-7.039l-1.118-2.726 l-0.001-0.003c-1.064-2.564-2.125-2.789-3.726-2.854C15.319,8.027,14.798,8,14.22,8c-2.195,0-4.137,0.703-5.327,1.929 l-0.115,0.118C7.348,11.51,4,14.935,4,21.663c0,5.777,3.431,11.361,5.476,14.175l0.077,0.106c0.044,0.059,0.127,0.181,0.248,0.358 c6.491,9.466,14.519,16.536,22.604,19.905c7.176,2.992,10.97,3.788,13.567,3.788c1.098,0,1.982-0.143,2.817-0.321 c3.728-0.808,8.352-3.551,9.58-7.045C59.367,49.788,59.678,46.596,59.063,45.513z M15.689,10.052 c1.097,0.045,1.325,0.054,1.977,1.623l1.115,2.72c1.537,3.753,2.731,6.661,2.96,7.143c0.339,0.708,0.397,1.176,0.182,1.598 c-0.337,0.722-0.618,1.049-1.18,1.7L20.7,24.886l-6.126-14.878C14.968,10.015,15.342,10.031,15.689,10.052z M56.482,51.967 c-0.938,2.671-4.944,5.065-8.115,5.753c-1.989,0.425-4.718,1.01-15.193-3.357C25.44,51.139,17.726,44.323,11.45,35.171 c-0.146-0.214-0.248-0.36-0.289-0.414l-0.067-0.094C9.191,32.045,6,26.875,6,21.663c0-5.913,2.842-8.821,4.208-10.219l0.119-0.122 c0.51-0.526,1.286-0.916,2.201-1.131c0.012,0.064,0.011,0.128,0.037,0.19l6.646,16.14c-0.192,0.214-0.388,0.441-0.591,0.693 c-0.64,0.754-1.71,2.016-0.599,3.943c1.229,2.093,3.84,6.096,7.506,9.383c4.752,4.253,8.745,5.878,10.451,6.572l0.4,0.164 c1.575,0.658,3.262,0.364,4.3-0.752c0.574-0.624,1.209-1.457,1.876-2.374l14.161,7.081C56.642,51.474,56.571,51.716,56.482,51.967 z M57.191,49.233l-13.457-6.729l0.55-0.775c0.556-0.79,1.155-0.969,2.082-0.619c1.025,0.359,6.677,3.143,8.86,4.242 c0.277,0.141,0.535,0.266,0.773,0.38c0.546,0.265,1.226,0.594,1.302,0.722C57.406,46.739,57.437,47.788,57.191,49.233z"/><path fill="#8d6c9f" d="M15.131 34.144c-.28-.475-.893-.636-1.369-.355-.476.279-.635.893-.355 1.369.328.559.916 1.42 1.571 2.303.196.265.498.404.804.404.207 0 .416-.064.595-.197.443-.329.536-.955.207-1.398C15.672 35.04 15.241 34.332 15.131 34.144zM30.377 48.435c-2.548-1.31-5.17-3.165-7.792-5.512-1.115-1-2.24-2.139-3.346-3.386-.366-.416-1-.451-1.411-.085-.413.366-.451.998-.085 1.411 1.155 1.304 2.335 2.498 3.507 3.549 2.75 2.461 5.514 4.413 8.213 5.802.146.075.303.11.456.11.363 0 .713-.198.891-.543C31.062 49.29 30.868 48.688 30.377 48.435zM36.364 21.85c.195.195.451.293.707.293s.512-.098.707-.293c.391-.391.391-1.023 0-1.414L31.343 14H45c3.859 0 7 3.141 7 7v12c0 .553.447 1 1 1s1-.447 1-1V21c0-4.963-4.037-9-9-9H31.485l6.293-6.293c.391-.391.391-1.023 0-1.414s-1.023-.391-1.414 0l-8.071 8.071c-.391.391-.391 1.023 0 1.414L36.364 21.85z"/></svg>